<svg id="图层_1" data-name="图层 1" xmlns="http://www.w3.org/2000/svg" viewBox="0 0 30 30"><defs><style>.cls-1{fill:#fff;}.cls-2{fill:none;}</style></defs><path class="cls-1" d="M15,27.53c-2.85,0-5.73-.91-5.73-2.66,0-1,.94-1.79,2.64-2.27a.65.65,0,0,1,.8.45.65.65,0,0,1-.45.8c-1.17.33-1.69.8-1.69,1,0,.48,1.68,1.36,4.43,1.36s4.43-.88,4.43-1.36c0-.19-.42-.63-1.54-1a.65.65,0,0,1,.38-1.25c1.58.48,2.46,1.27,2.46,2.22C20.73,26.62,17.85,27.53,15,27.53Z"/><path class="cls-1" d="M20.7,12a.65.65,0,0,1,0-1.3h3.17a8.89,8.89,0,0,0-8.22-8.21V5.63a.65.65,0,1,1-1.3,0V2.47a8.89,8.89,0,0,0-8.22,8.21H9.3a.65.65,0,0,1,0,1.3H6.13a8.89,8.89,0,0,0,8.22,8.22V17a.65.65,0,0,1,1.3,0V20.2A8.89,8.89,0,0,0,23.87,12Zm-5.7.94a1.59,1.59,0,1,1,0-3.17,1.45,1.45,0,0,1,.47.08l3.9-3.9a.65.65,0,0,1,.92.92l-3.84,3.84a1.53,1.53,0,0,1,.14.64A1.59,1.59,0,0,1,15,12.92Z"/><path class="cls-1" d="M15,24.87a.65.65,0,0,1-.65-.65V22a.65.65,0,0,1,1.3,0v2.27A.65.65,0,0,1,15,24.87Z"/><rect class="cls-2" width="30" height="30"/></svg>