<svg id="图层_1" data-name="图层 1" xmlns="http://www.w3.org/2000/svg" viewBox="0 0 30 30"><defs><style>.cls-1{fill:#fff;}.cls-2{fill:none;}</style></defs><rect class="cls-1" x="6.08" y="4.9" width="17.97" height="1.91" rx="0.95"/><path class="cls-1" d="M13.23,10h3.66A2.14,2.14,0,0,1,19,12.17v1.24a.33.33,0,0,1-.33.33h-7a.64.64,0,0,1-.64-.64v-.93A2.14,2.14,0,0,1,13.23,10Z"/><path class="cls-1" d="M17.21,14.6V16a1.57,1.57,0,0,0,1.57,1.57h2.47a.63.63,0,0,1,.64.63v5.62a.64.64,0,0,1-.64.64H8.87a.64.64,0,0,1-.64-.64V18.21a.64.64,0,0,1,.64-.63h2.22A1.57,1.57,0,0,0,12.66,16V14.6Z"/><rect class="cls-1" x="5" y="16.94" width="2.16" height="8.15" rx="0.52"/><rect class="cls-1" x="22.84" y="16.94" width="2.16" height="8.15" rx="0.52"/><rect class="cls-1" x="12.77" y="7.63" width="4.36" height="1.58"/><rect class="cls-2" width="30" height="30"/></svg>