<svg id="图层_1" data-name="图层 1" xmlns="http://www.w3.org/2000/svg" viewBox="0 0 30 30"><defs><style>.cls-1{fill:#fff;}.cls-2{fill:none;}</style></defs><rect class="cls-1" x="9.88" y="21.37" width="10.12" height="3.83" rx="0.78"/><rect class="cls-1" x="6.58" y="19.03" width="2.32" height="8.71" rx="1.16"/><rect class="cls-1" x="21.11" y="19.03" width="2.32" height="8.71" rx="1.16"/><path class="cls-1" d="M15.11,5.87a3.77,3.77,0,1,0,3.76,3.76A3.77,3.77,0,0,0,15.11,5.87Z"/><path class="cls-1" d="M15.11,2.26a7.37,7.37,0,1,0,7.37,7.37A7.37,7.37,0,0,0,15.11,2.26Zm0,12.54a5.17,5.17,0,1,1,5.16-5.17A5.18,5.18,0,0,1,15.11,14.8Z"/><polyline class="cls-1" points="16.2 16.24 16.2 22.17 13.68 22.17 13.68 16.24"/><rect class="cls-2" width="30" height="30"/></svg>