<svg id="图层_1" data-name="图层 1" xmlns="http://www.w3.org/2000/svg" viewBox="0 0 30 30"><defs><style>.cls-1{fill:#fff;}.cls-2{fill:none;}</style></defs><rect class="cls-1" x="4.7" y="11.17" width="20.59" height="2.27" rx="1.09"/><rect class="cls-1" x="7.44" y="3" width="15.08" height="2.89" rx="0.71"/><path class="cls-1" d="M12.44,14.59h5.08a5,5,0,0,1,5,5V23.4a.33.33,0,0,1-.33.33H8.08a.64.64,0,0,1-.64-.64V19.59a5,5,0,0,1,5-5Z" transform="translate(29.97 38.33) rotate(-180)"/><rect class="cls-1" x="9.21" y="6.95" width="11.34" height="3.17"/><path class="cls-1" d="M12.05,24.82h5.67a0,0,0,0,1,0,0v.83A1.35,1.35,0,0,1,16.37,27h-3a1.35,1.35,0,0,1-1.35-1.35v-.83A0,0,0,0,1,12.05,24.82Z"/><rect class="cls-2" width="30" height="30"/></svg>