<svg id="图层_1" data-name="图层 1" xmlns="http://www.w3.org/2000/svg" viewBox="0 0 30 30"><defs><style>.cls-1{fill:#fff;}.cls-2{fill:none;}</style></defs><path class="cls-1" d="M5.37,11H6.5a0,0,0,0,1,0,0v9a0,0,0,0,1,0,0H5.37A2.87,2.87,0,0,1,2.5,17.07V13.85A2.87,2.87,0,0,1,5.37,11Z"/><path class="cls-1" d="M25.05,11H24.6l-.05,7.07.5,1.88h0a2.45,2.45,0,0,0,2.45-2.45V13.43A2.45,2.45,0,0,0,25.05,11Z"/><polyline class="cls-1" points="20.96 8 20.96 18.05 19.76 24.44 25.09 24.44 23.46 18.05 23.46 8"/><polyline class="cls-1" points="20.86 8 18.82 8 18.82 5.56 25.09 5.56 25.09 8 23.63 8"/><path class="cls-1" d="M10.34,7.33H13a1.12,1.12,0,0,1,1.12,1.12V9.62a0,0,0,0,1,0,0H9.25a0,0,0,0,1,0,0V8.42A1.09,1.09,0,0,1,10.34,7.33Z"/><rect class="cls-1" x="7.41" y="14.29" width="12.63" height="2.33"/><path class="cls-1" d="M20.05,13.18v-2a.84.84,0,0,0-.81-.88h-11a.85.85,0,0,0-.81.88v2Z"/><path class="cls-1" d="M7.41,17.73v2a.85.85,0,0,0,.81.88H19.69l.36-2.46v-.43Z"/><rect class="cls-2" width="30" height="30"/></svg>