<?xml version="1.0" encoding="utf-8"?>
<!-- Generator: Adobe Illustrator 25.2.3, SVG Export Plug-In . SVG Version: 6.00 Build 0)  -->
<svg version="1.1" id="图层_1" xmlns="http://www.w3.org/2000/svg" xmlns:xlink="http://www.w3.org/1999/xlink" x="0px" y="0px"
	 viewBox="0 0 30 30" style="enable-background:new 0 0 30 30;" xml:space="preserve">
<style type="text/css">
	.st0{fill:#FFFFFF;}
	.st1{fill:none;}
</style>
<rect x="10.3" y="21.8" class="st0" width="1.4" height="3.2"/>
<rect x="7.8" y="21.8" class="st0" width="1.4" height="3.2"/>
<path class="st0" d="M6.4,25h0.4v-3.2h-2v1.6C4.8,24.3,5.6,25,6.4,25L6.4,25z"/>
<path class="st0" d="M12.7,25h0.4c0.9,0,1.6-0.7,1.6-1.6v-1.6h-1.9V25z"/>
<rect x="22" y="8" class="st0" width="3.2" height="1.4"/>
<rect x="22" y="10.4" class="st0" width="3.2" height="1.4"/>
<path class="st0" d="M25.1,13.3v-0.4H22v2h1.6C24.5,14.9,25.2,14.2,25.1,13.3C25.2,13.3,25.2,13.3,25.1,13.3z"/>
<path class="st0" d="M25.1,7V6.6c0-0.9-0.7-1.6-1.6-1.6c0,0,0,0,0,0H22v2H25.1z"/>
<path class="st0" d="M5.4,16v3.9h8.8v-2.2c0-1.9,1.5-3.4,3.3-3.4c0,0,0,0,0,0h2.4V5.6h-4.1C10.1,5.6,5.4,10.2,5.4,16z"/>
<rect class="st1" width="30" height="30"/>
</svg>
