<?xml version="1.0" encoding="utf-8"?>
<!-- Generator: Adobe Illustrator 25.2.3, SVG Export Plug-In . SVG Version: 6.00 Build 0)  -->
<svg version="1.1" id="图层_1" xmlns="http://www.w3.org/2000/svg" xmlns:xlink="http://www.w3.org/1999/xlink" x="0px" y="0px"
	 viewBox="0 0 30 30" style="enable-background:new 0 0 30 30;" xml:space="preserve">
<style type="text/css">
	.st0{fill:#FFFFFF;}
	.st1{fill:none;}
</style>
<path class="st0" d="M5.8,17.4v-4.7c0-1.1,0.9-2,2-2h0.7l0,0v8.7l0,0H7.8C6.7,19.4,5.8,18.5,5.8,17.4L5.8,17.4z"/>
<path class="st0" d="M22.2,27.5h-4.7c-1.1,0-2-0.9-2-2v-0.7l0,0h8.7l0,0v0.7C24.2,26.6,23.3,27.5,22.2,27.5z"/>
<path class="st0" d="M17.5,2.5h4.7c1.1,0,2,0.9,2,2v0.7l0,0h-8.7l0,0V4.5C15.5,3.4,16.4,2.5,17.5,2.5z"/>
<polygon class="st0" points="16.1,11 9.4,11 9.4,19 16.1,19 16.1,23.9 24,23.9 24,19 24,11 24,6.1 16.1,6.1 "/>
<rect class="st1" width="30" height="30"/>
</svg>
