<svg id="图层_1" data-name="图层 1" xmlns="http://www.w3.org/2000/svg" viewBox="0 0 30 30"><defs><style>.cls-1{fill:#fff;}.cls-2{fill:none;}</style></defs><path class="cls-1" d="M26.93,7.45a.62.62,0,0,0-.77.42l-.65,2.28A3.2,3.2,0,0,1,24,9.6a4.61,4.61,0,0,0-5,0,3.39,3.39,0,0,1-3.76,0,4.32,4.32,0,0,0-2.52-.75,4.29,4.29,0,0,0-2.51.75,3.13,3.13,0,0,1-1.88.57A3.11,3.11,0,0,1,6.36,9.6a3.5,3.5,0,0,0-2.25-.77l-.27-1a.63.63,0,0,0-.77-.42.61.61,0,0,0-.42.76l4,13.92a.62.62,0,0,0,.59.45h15.5a.62.62,0,0,0,.59-.45l4-13.92A.61.61,0,0,0,26.93,7.45ZM6.05,12.75a2.9,2.9,0,0,1,2,.82,1.92,1.92,0,0,0,2.77,0,2.86,2.86,0,0,1,4,0,1.92,1.92,0,0,0,2.77,0,2.87,2.87,0,0,1,4,0,1.91,1.91,0,0,0,1.39.59.66.66,0,0,1,0,1.3,2.85,2.85,0,0,1-2-.82,2,2,0,0,0-2.78,0,2.86,2.86,0,0,1-4,0,1.94,1.94,0,0,0-2.77,0,2.86,2.86,0,0,1-4,0,1.94,1.94,0,0,0-1.39-.58.6.6,0,0,1-.54-.65A.61.61,0,0,1,6.05,12.75Zm2,4.07a1.92,1.92,0,0,0,2.77,0,2.86,2.86,0,0,1,4,0,1.92,1.92,0,0,0,2.77,0,2.87,2.87,0,0,1,4,0,1.91,1.91,0,0,0,1.39.59.5.5,0,0,1,.35.16L23,18.71h0a2.85,2.85,0,0,1-2-.82,2,2,0,0,0-2.78,0,2.86,2.86,0,0,1-4,0,1.94,1.94,0,0,0-2.77,0,2.86,2.86,0,0,1-4,0,2.47,2.47,0,0,0-.87-.51L6.18,16A2.92,2.92,0,0,1,8.06,16.82Z"/><rect class="cls-2" width="30" height="30"/></svg>