<svg id="图层_1" data-name="图层 1" xmlns="http://www.w3.org/2000/svg" xmlns:xlink="http://www.w3.org/1999/xlink" viewBox="0 0 22 22"><defs><style>.cls-1{fill:#f39a25;}.cls-2{fill:url(#未命名的渐变_118);}.cls-3{fill:url(#未命名的渐变_145);}.cls-4,.cls-5{fill:none;}.cls-4{stroke:#f39a25;stroke-miterlimit:10;stroke-width:1.1px;}</style><linearGradient id="未命名的渐变_118" x1="10.91" y1="6.35" x2="10.91" y2="20.08" gradientUnits="userSpaceOnUse"><stop offset="0" stop-color="#ff594d"/><stop offset="0.64" stop-color="#f39a25"/></linearGradient><linearGradient id="未命名的渐变_145" x1="10.91" y1="15.11" x2="10.91" y2="9.94" gradientUnits="userSpaceOnUse"><stop offset="0" stop-color="#fff"/><stop offset="1" stop-color="#ffe3b5"/></linearGradient></defs><rect class="cls-1" x="4.19" y="18.64" width="13.43" height="1.36"/><path class="cls-2" d="M11,5.93h-.16a5.17,5.17,0,0,0-5.31,5V17.5H16.29V11A5.17,5.17,0,0,0,11,5.93Z"/><polygon class="cls-3" points="10.05 15.21 10.56 12.79 9.01 11.66 11.9 8.57 11.32 11.02 12.8 12.12 10.05 15.21"/><line class="cls-4" x1="10.96" y1="2" x2="10.96" y2="4.47"/><line class="cls-4" x1="16.52" y1="3.79" x2="14.68" y2="5.54"/><line class="cls-4" x1="5.52" y1="3.96" x2="7.65" y2="5.37"/><line class="cls-4" x1="20" y1="7.81" x2="17.4" y2="7.81"/><line class="cls-4" x1="4.6" y1="7.81" x2="2" y2="7.81"/><rect class="cls-5" width="22" height="22"/></svg>