<svg id="图层_1" data-name="图层 1" xmlns="http://www.w3.org/2000/svg" xmlns:xlink="http://www.w3.org/1999/xlink" viewBox="0 0 26 26"><defs><style>.cls-1{fill:url(#未命名的渐变_26);}.cls-2{fill:url(#未命名的渐变_10);}.cls-3,.cls-4{fill:none;}.cls-3{stroke:#fff;stroke-linecap:round;stroke-linejoin:round;stroke-width:1.6px;}</style><linearGradient id="未命名的渐变_26" x1="0.9" y1="13" x2="25.1" y2="13" gradientUnits="userSpaceOnUse"><stop offset="0" stop-color="#edb8c4"/><stop offset="1" stop-color="#fff"/></linearGradient><linearGradient id="未命名的渐变_10" x1="2.89" y1="13.21" x2="23.11" y2="13.21" gradientUnits="userSpaceOnUse"><stop offset="0" stop-color="#f15a24"/><stop offset="1" stop-color="#f32c20"/></linearGradient></defs><path class="cls-1" d="M10.88,3.8,1.26,19.62a2.48,2.48,0,0,0,2.12,3.77H22.62a2.48,2.48,0,0,0,2.12-3.77L15.12,3.8A2.48,2.48,0,0,0,10.88,3.8Z"/><path class="cls-2" d="M12,5.25,3.06,20a1.13,1.13,0,0,0,1,1.72H22a1.13,1.13,0,0,0,1-1.72L14,5.25A1.13,1.13,0,0,0,12,5.25Z"/><line class="cls-3" x1="13" y1="10.37" x2="13" y2="14.28"/><circle class="cls-3" cx="13" cy="18.07" r="0.19"/><rect class="cls-4" width="26" height="26"/></svg>