<svg id="图层_1" data-name="图层 1" xmlns="http://www.w3.org/2000/svg" viewBox="0 0 22 22"><defs><style>.cls-1,.cls-2{fill:none;}.cls-1{stroke:#fff;stroke-linecap:round;stroke-linejoin:round;stroke-width:1.3px;}</style></defs><path class="cls-1" d="M11,2A7.65,7.65,0,0,0,3.35,9.65c0,3.55,5.17,8.44,7,10.1a.93.93,0,0,0,1.27,0c1.84-1.65,7-6.62,7-10.1A7.65,7.65,0,0,0,11,2Zm.78,10.53A3.13,3.13,0,0,1,8,8.73a3.07,3.07,0,0,1,2.24-2.24,3.12,3.12,0,0,1,3.8,3.8A3.07,3.07,0,0,1,11.78,12.53Z"/><rect class="cls-2" width="22" height="22"/></svg>