<svg id="图层_1" data-name="图层 1" xmlns="http://www.w3.org/2000/svg" viewBox="0 0 36 36"><defs><style>.cls-1{opacity:0.2;}.cls-2{fill:#46b97e;}.cls-3{fill:none;stroke:#46b97e;stroke-miterlimit:10;}</style></defs><g class="cls-1"><circle class="cls-2" cx="18" cy="18" r="18"/></g><path class="cls-3" d="M20.55,26.5h1.14a1.94,1.94,0,0,0,2-1.93V11.73a2,2,0,0,1,2.11-2.22H12.69a2,2,0,0,0-2,1.93V22.56"/><path class="cls-3" d="M18.53,24.63v-2H8v1.65a2.47,2.47,0,0,0,2.66,2.22h10.1A2.08,2.08,0,0,1,18.53,24.63Z"/><path class="cls-3" d="M23.67,12.3v-.64A2,2,0,0,1,25.48,9.5h.7A2,2,0,0,1,28,11.66v.64Z"/><circle class="cls-3" cx="17.03" cy="16.06" r="4.02"/><polyline class="cls-3" points="16.78 14.07 16.78 16.62 18.82 16.62"/></svg>