<svg id="图层_1" data-name="图层 1" xmlns="http://www.w3.org/2000/svg" viewBox="0 0 22 22"><defs><style>.cls-1{fill:#fff;}.cls-2,.cls-3{fill:none;}.cls-2{stroke:#fff;stroke-linecap:round;stroke-linejoin:round;stroke-width:1.3px;}</style></defs><path class="cls-1" d="M11,2.3a5.8,5.8,0,0,1,5.8,5.8c0,1.74-2.26,4.91-5.79,8.15C7.36,12.92,5.2,9.89,5.2,8.1A5.8,5.8,0,0,1,11,2.3M11,1A7.1,7.1,0,0,0,3.9,8.1c0,3.29,4.8,7.82,6.51,9.37a.92.92,0,0,0,.6.23.85.85,0,0,0,.58-.23c1.71-1.54,6.51-6.15,6.51-9.37A7.1,7.1,0,0,0,11,1Z"/><path class="cls-1" d="M11,5.48a2.47,2.47,0,0,1,2,.95,2.51,2.51,0,0,1,.45,2.18,2.46,2.46,0,0,1-1.77,1.77,2.87,2.87,0,0,1-.64.08A2.49,2.49,0,0,1,8.59,7.33a2.46,2.46,0,0,1,1.77-1.78A2.85,2.85,0,0,1,11,5.48m0-1.3a3.83,3.83,0,0,0-.94.11A3.79,3.79,0,0,0,11,11.76a3.85,3.85,0,0,0,.94-.12,3.76,3.76,0,0,0,2.74-2.73A3.8,3.8,0,0,0,11,4.18Z"/><path class="cls-2" d="M16.56,17.22l1.51,3.18c.14.3-.25.6-.79.6H4.71c-.53,0-.92-.3-.78-.6l1.51-3.18"/><rect class="cls-3" width="22" height="22"/></svg>