<svg id="图层_1" data-name="图层 1" xmlns="http://www.w3.org/2000/svg" viewBox="0 0 22 22"><defs><style>.cls-1{fill:#46b97e;}.cls-2{fill:none;}</style></defs><path class="cls-1" d="M8.1,11.34l.55,2.35-.12.05a.17.17,0,0,0-.09.16v0l.07.14a.15.15,0,0,0,.15.09h.05l.11-.06,1.4,2-1.43.67A.62.62,0,0,1,8,16.5l0-.08-1.63-3.6a.62.62,0,0,1,.21-.76L6.66,12l1.44-.67Z"/><path class="cls-1" d="M19.83,15,18,13.64l-.5-2.87,0-.15a1.53,1.53,0,0,0,0-.3.91.91,0,0,0-.4-1h0a.85.85,0,0,0-.82,0l-3.62.37-.1,0a.73.73,0,0,0-.42.29l-1.46,2.15a.42.42,0,0,0-.43-.06L10,12.2h0l-.4-.87,0-.08A.68.68,0,0,0,8.64,11l-.43.2.56,2.43.17-.08H9a.16.16,0,0,1,.15.08l.06.14v.05a.13.13,0,0,1-.08.15L9,14l1.45,2,.43-.2.08,0a.68.68,0,0,0,.25-.86l-.39-.88h0l.28-.12.06,0a.42.42,0,0,0,.18-.3v0a.75.75,0,0,0,.3-.26l1.5-2.22,1.71-.17L12.9,14.29l-.06.13a1.15,1.15,0,0,0-.08.41L8.17,19.71l-.07.08A.89.89,0,0,0,8.2,21a.85.85,0,0,0,.62.24.84.84,0,0,0,.61-.27l4.37-4.65,1.06,1.56-1.27,1.93-.05.1a.87.87,0,0,0,.3,1.12l0,0A.87.87,0,0,0,15,20.74l1.59-2.43.06-.1a.91.91,0,0,0-.06-.89L15.12,15.1l1.27-2.23.22,1.31,0,.11a.75.75,0,0,0,.26.35L19,16.19l0,0,0,0A.72.72,0,0,0,20,16,.73.73,0,0,0,19.83,15Zm-9.46-2.44a.76.76,0,0,0-.06.47L10,12.42h0l.27-.13.05,0h0a.24.24,0,0,1,.16.05l-.12.17ZM11,13.73l-.27.13h0l-.23-.51h0a.72.72,0,0,0,.21.18.69.69,0,0,0,.42.1A.19.19,0,0,1,11,13.73Z"/><path class="cls-1" d="M18.7,6.19a1.82,1.82,0,1,1-1.28,3.1A1.84,1.84,0,0,1,16.9,8a1.81,1.81,0,0,1,1.8-1.82Z"/><path class="cls-1" d="M15.31.81H3.51a2,2,0,0,0-2,2V19.17a2,2,0,0,0,2,2H6.43a2.57,2.57,0,0,1,.32-2.38l.17-.21.44-.47a2.29,2.29,0,0,1-.83-.78l0,0-.1-.19L4.74,13.46a2.3,2.3,0,0,1,.78-2.82l.07-.05.21-.12L8,9.43v0a2.29,2.29,0,0,1,2.24.26L10.74,9a2.36,2.36,0,0,1,1.38-1l.06,0,.22,0,2.84-.29a3.49,3.49,0,0,1,2.09-2.91v-2A2,2,0,0,0,15.31.81Zm-8.2,6.6H4.48a.74.74,0,1,1,0-1.47H7.11a.74.74,0,1,1,0,1.47Zm2-3H4.48a.74.74,0,0,1-.74-.73A.74.74,0,0,1,4.48,3H9.12a.74.74,0,0,1,.74.74A.74.74,0,0,1,9.12,4.43Z"/><rect class="cls-2" width="22" height="22"/></svg>