<svg id="图层_1" data-name="图层 1" xmlns="http://www.w3.org/2000/svg" viewBox="0 0 22 22"><defs><style>.cls-1,.cls-2,.cls-3{fill:none;}.cls-1,.cls-2{stroke:#fff;stroke-linecap:round;stroke-linejoin:round;stroke-width:1.3px;}.cls-2{stroke-dasharray:1.89 2.84;}</style></defs><path class="cls-1" d="M6.87,3.29a11.32,11.32,0,0,1,1.75,0,10.7,10.7,0,0,1,10,11.39,10.33,10.33,0,0,1-.17,1.26"/><polyline class="cls-1" points="8.28 5.86 6 3.25 8.61 0.98"/><polyline class="cls-1" points="20.99 15.03 18.39 17.31 16.11 14.7"/><circle class="cls-1" cx="9.09" cy="16.98" r="4.04"/><path class="cls-1" d="M5.05,16.69a4.07,4.07,0,0,1-1-.12"/><path class="cls-2" d="M1.76,15A4.05,4.05,0,0,1,5.05,8.6a4,4,0,0,1,3.34,1.77"/><path class="cls-1" d="M9,11.65a4.09,4.09,0,0,1,.12,1"/><rect class="cls-3" width="22" height="22"/></svg>