<svg id="图层_1" data-name="图层 1" xmlns="http://www.w3.org/2000/svg" viewBox="0 0 22 22"><defs><style>.cls-1{fill:#fff;}.cls-2,.cls-3{fill:none;}.cls-2{stroke:#fff;stroke-linecap:round;stroke-linejoin:round;stroke-width:1.3px;}</style></defs><path class="cls-1" d="M11,2.3a2.15,2.15,0,0,1,2.15,2.15c0,.49-.74,1.65-2.15,3-1.47-1.43-2.15-2.55-2.15-3A2.15,2.15,0,0,1,11,2.3M11,1A3.45,3.45,0,0,0,7.55,4.45C7.55,6,9.88,8.24,10.71,9A.48.48,0,0,0,11,9.1.39.39,0,0,0,11.29,9c.83-.75,3.16-3,3.16-4.54A3.45,3.45,0,0,0,11,1Z"/><path class="cls-1" d="M11,3.24l-.22,0A.89.89,0,0,0,11,5a.83.83,0,0,0,.22,0,.87.87,0,0,0,.64-.64A.89.89,0,0,0,11,3.24Z"/><path class="cls-2" d="M16.27,4.35a9.17,9.17,0,1,1-10.47,0"/><path class="cls-2" d="M10.55,8.86S5.81,10.33,7.28,12.6c.87,1.35,4.33.66,4.33,2.6s-4.25,2.29-8.69.23"/><path class="cls-2" d="M14.87,14.34s.66-4.35,2.31-3.69S19,13.09,14.87,14.34Z"/><rect class="cls-3" width="22" height="22"/></svg>