<svg id="图层_1" data-name="图层 1" xmlns="http://www.w3.org/2000/svg" viewBox="0 0 22 22"><defs><style>.cls-1{fill:#46b97e;}.cls-2{fill:none;}</style></defs><path class="cls-1" d="M11,1A6.62,6.62,0,0,0,4.38,7.62c0,3.07,4.47,7.3,6.07,8.73a.81.81,0,0,0,1.1,0c1.6-1.44,6.07-5.73,6.07-8.74A6.62,6.62,0,0,0,11,1Zm.88,9.92a3.54,3.54,0,1,1,2.55-2.55A3.49,3.49,0,0,1,11.88,10.92Z"/><ellipse class="cls-1" cx="11" cy="17.93" rx="2.63" ry="0.6"/><path class="cls-1" d="M16.26,17.66c.65.22,1,.49,1,.79,0,.79-2.82,1.44-6.29,1.44s-6.29-.65-6.29-1.44c0-.3.38-.57,1-.79-1.81.34-3,.86-3,1.45,0,1,3.69,1.89,8.25,1.89s8.25-.85,8.25-1.89C19.25,18.52,18.07,18,16.26,17.66Z"/><rect class="cls-2" width="22" height="22"/></svg>