<svg id="图层_1" data-name="图层 1" xmlns="http://www.w3.org/2000/svg" viewBox="0 0 52 52"><defs><style>.cls-1,.cls-2{fill:#46b97e;}.cls-2,.cls-3{opacity:0.5;}.cls-3{fill:#fff;}.cls-4{fill:none;}</style></defs><path class="cls-1" d="M48.65,41.42c-14.17.36-16-7.6-17.14-13.9-.59-3.3-1-6.15-2.88-7.1-4.9-2.45-8.94,3.71-8.94,3.71C21,19.38,21.47,7.71,20.14,10A10.36,10.36,0,0,1,14,14.73C12.44,15,15.07,6.84,25.08,4.48c3.76-.88,3.35-3.07,2.67-3.75a25.28,25.28,0,1,0,20.9,40.69Z"/><circle class="cls-1" cx="35.57" cy="5.79" r="3.44"/><circle class="cls-2" cx="38.18" cy="29.79" r="1.95"/><circle class="cls-1" cx="31.32" cy="16.72" r="2.68"/><circle class="cls-2" cx="26.32" cy="8.1" r="1.87"/><path class="cls-3" d="M12.46,19.41c.14-4.52-4.54,4.22-6.73,3.37s0-6.75,0-6.75l-.34,0A25.28,25.28,0,0,0,22.3,50.47C8.86,38.36,12.32,23.53,12.46,19.41Z"/><rect class="cls-4" width="52" height="52"/></svg>