<svg id="图层_1" data-name="图层 1" xmlns="http://www.w3.org/2000/svg" xmlns:xlink="http://www.w3.org/1999/xlink" viewBox="0 0 57.63 70"><defs><style>.cls-1{fill:url(#未命名的渐变_112);}.cls-2{fill:#fff;}</style><linearGradient id="未命名的渐变_112" x1="28.82" y1="70.54" x2="28.82" y2="17.28" gradientUnits="userSpaceOnUse"><stop offset="0" stop-color="#ffa241"/><stop offset="1" stop-color="#ec761e"/></linearGradient></defs><path class="cls-1" d="M21.72,55.71l-.39-.11a27.82,27.82,0,1,1,15,0l-.39.11L28.82,68Z"/><path class="cls-2" d="M28.82,2A26.81,26.81,0,0,1,36,54.64l-.78.22-.41.71L28.82,66l-6-10.43-.41-.71-.78-.22A26.81,26.81,0,0,1,28.82,2m0-2a28.82,28.82,0,0,0-7.76,56.57L28.82,70l7.75-13.43A28.82,28.82,0,0,0,28.82,0Z"/></svg>