<svg id="图层_1" data-name="图层 1" xmlns="http://www.w3.org/2000/svg" xmlns:xlink="http://www.w3.org/1999/xlink" viewBox="0 0 36 36"><defs><style>.cls-1{fill:#cfe5e3;}.cls-2{fill:url(#未命名的渐变_20);}.cls-3{fill:url(#未命名的渐变_28);}.cls-4{fill:url(#未命名的渐变_36);}.cls-5{fill:url(#未命名的渐变_9);}.cls-6{fill:url(#未命名的渐变_28-2);}</style><linearGradient id="未命名的渐变_20" x1="18" y1="35.38" x2="18" y2="25.1" gradientUnits="userSpaceOnUse"><stop offset="0" stop-color="#46b97e" stop-opacity="0"/><stop offset="0.1" stop-color="#6fc99b" stop-opacity="0.13"/><stop offset="0.22" stop-color="#9bd9b9" stop-opacity="0.28"/><stop offset="0.35" stop-color="#bfe7d3" stop-opacity="0.39"/><stop offset="0.48" stop-color="#dcf2e6" stop-opacity="0.48"/><stop offset="0.63" stop-color="#eff9f4" stop-opacity="0.55"/><stop offset="0.79" stop-color="#fbfefc" stop-opacity="0.59"/><stop offset="1" stop-color="#fff" stop-opacity="0.6"/></linearGradient><linearGradient id="未命名的渐变_28" x1="-10539.22" y1="8733.81" x2="-10539.22" y2="8727.61" gradientTransform="translate(10557.37 -8706.11)" gradientUnits="userSpaceOnUse"><stop offset="0" stop-color="#63e5b0"/><stop offset="1" stop-color="#46b97e"/></linearGradient><linearGradient id="未命名的渐变_36" x1="18.05" y1="22.76" x2="18.05" y2="8.17" gradientUnits="userSpaceOnUse"><stop offset="0" stop-color="#fff"/><stop offset="0.15" stop-color="#fbfefc"/><stop offset="0.31" stop-color="#eefaf5"/><stop offset="0.47" stop-color="#d9f4e8"/><stop offset="0.63" stop-color="#bcecd6"/><stop offset="0.79" stop-color="#96e2be"/><stop offset="0.96" stop-color="#68d5a2"/><stop offset="1" stop-color="#5bd19a"/></linearGradient><linearGradient id="未命名的渐变_9" x1="17.27" y1="15.67" x2="17.27" y2="4.81" gradientUnits="userSpaceOnUse"><stop offset="0" stop-color="#46b97e"/><stop offset="0.13" stop-color="#56bf89"/><stop offset="0.38" stop-color="#82d0a8"/><stop offset="0.73" stop-color="#c6ead7"/><stop offset="1" stop-color="#fff"/></linearGradient><linearGradient id="未命名的渐变_28-2" x1="18.28" y1="21.67" x2="18.28" y2="19.37" gradientTransform="matrix(1, 0, 0, 1, 0, 0)" xlink:href="#未命名的渐变_28"/></defs><circle class="cls-1" cx="18" cy="18" r="18"/><path class="cls-2" d="M18,36a17.9,17.9,0,0,0,11.6-4.25,13.14,13.14,0,0,0-23.2,0A17.9,17.9,0,0,0,18,36Z"/><rect class="cls-3" x="15.48" y="21.3" width="5.33" height="6.78" rx="2.67" transform="translate(36.3 49.38) rotate(180)"/><path class="cls-4" d="M25.55,15.17V12.88a5.16,5.16,0,0,0-5.17-5.17h-4.6a5.16,5.16,0,0,0-5.16,5.17v2.28a1.52,1.52,0,0,0-1.53,1.52V17a1.52,1.52,0,0,0,1.53,1.53h0a5.15,5.15,0,0,0,5.15,5.08h4.6a5.16,5.16,0,0,0,5.16-5.09A1.52,1.52,0,0,0,27,17v-.35A1.51,1.51,0,0,0,25.55,15.17Z"/><path class="cls-5" d="M10,14A15.33,15.33,0,0,1,10.75,16c.07.5.8.2.8.2s-.9-6.73,4.13-6.86c0,0-1.26.73-1.26,1.6a20,20,0,0,1,6.63-1c2.7.3,3.73,3.43,3.63,5s.8.67.8.67l.07-.51s.27-4,.33-4.36a3.42,3.42,0,0,0-3.16-4.43,1.88,1.88,0,0,0-2.2-1.9c-2.27.1-5.4,2-8.37,1.26S10,4.47,10,4.47s-.77,2,.5,2.57c0,0-1.27.67-.67,1.8,0,0-1.7.4-1.2,1.8C8.94,11.45,9.42,12.48,10,14Z"/><path class="cls-6" d="M15.31,19.3a3,3,0,0,0,5.94,0Z"/></svg>