<svg id="图层_1" data-name="图层 1" xmlns="http://www.w3.org/2000/svg" viewBox="0 0 30 30"><defs><style>.cls-1,.cls-2{fill:none;}.cls-1{stroke:#a0a0a0;stroke-linecap:round;stroke-linejoin:round;stroke-width:1.3px;}</style></defs><path class="cls-1" d="M21.07,21.58H7.64a1,1,0,0,1-.95-1v-10a1,1,0,0,1,.95-1h12.9a1,1,0,0,1,.95,1V18.7Z"/><line class="cls-1" x1="7.17" y1="13.52" x2="21.49" y2="13.52"/><line class="cls-1" x1="7.17" y1="17.55" x2="21.49" y2="17.55"/><path class="cls-1" d="M4.87,10.29H6.69a0,0,0,0,1,0,0V20.77a0,0,0,0,1,0,0H4.87A2.87,2.87,0,0,1,2,17.91V13.16A2.87,2.87,0,0,1,4.87,10.29Z"/><path class="cls-1" d="M25.13,10.29h-.54l-.06,8.28.6,2.2h0A2.86,2.86,0,0,0,28,17.91V13.16A2.87,2.87,0,0,0,25.13,10.29Z"/><polyline class="cls-1" points="21.6 6.8 21.6 18.57 20.19 26.05 26.44 26.05 24.53 18.57 24.53 6.8"/><polyline class="cls-1" points="21.49 6.8 19.09 6.8 19.09 3.95 26.44 3.95 26.44 6.8 24.73 6.8"/><path class="cls-1" d="M9.93,6.8h3.54a1.12,1.12,0,0,1,1.12,1.12V9.48a0,0,0,0,1,0,0H8.84a0,0,0,0,1,0,0V7.89A1.09,1.09,0,0,1,9.93,6.8Z"/><rect class="cls-2" width="30" height="30"/></svg>