<svg id="图层_1" data-name="图层 1" xmlns="http://www.w3.org/2000/svg" viewBox="0 0 30 30"><defs><style>.cls-1,.cls-2{fill:none;}.cls-1{stroke:#a0a0a0;stroke-linecap:round;stroke-linejoin:round;stroke-width:1.3px;}</style></defs><rect class="cls-1" x="4" y="4" width="22" height="2.34" rx="1.09"/><path class="cls-1" d="M12.28,8.61h5.44a2.14,2.14,0,0,1,2.14,2.14v2.07a.33.33,0,0,1-.33.33H10.78a.64.64,0,0,1-.64-.64V10.75a2.14,2.14,0,0,1,2.14-2.14Z"/><path class="cls-1" d="M17.63,13.66v1.21a1.92,1.92,0,0,0,1.92,1.92h3a.78.78,0,0,1,.78.78v6.88a.78.78,0,0,1-.78.78H7.42a.78.78,0,0,1-.78-.78V17.57a.78.78,0,0,1,.78-.78h2.72a1.92,1.92,0,0,0,1.92-1.92V13.15"/><rect class="cls-1" x="4" y="16.02" width="2.64" height="9.98" rx="0.52"/><rect class="cls-1" x="23.36" y="16.02" width="2.64" height="9.98" rx="0.52"/><rect class="cls-1" x="12.19" y="6.68" width="5.33" height="1.93"/><rect class="cls-2" width="30" height="30"/></svg>