<?xml version="1.0" encoding="utf-8"?>
<!-- Generator: Adobe Illustrator 25.2.3, SVG Export Plug-In . SVG Version: 6.00 Build 0)  -->
<svg version="1.1" id="图层_1" xmlns="http://www.w3.org/2000/svg" xmlns:xlink="http://www.w3.org/1999/xlink" x="0px" y="0px"
	 viewBox="0 0 30 30" style="enable-background:new 0 0 30 30;" xml:space="preserve">
<style type="text/css">
	.st0{fill:none;stroke:#A0A0A0;stroke-width:1.3;stroke-linecap:round;stroke-linejoin:round;}
	.st1{fill:none;}
</style>
<path class="st0" d="M5.6,17.7v-5.3c0-1.1,0.9-2,2-2h0.9l0,0v9.3l0,0H7.6C6.5,19.7,5.6,18.8,5.6,17.7z"/>
<path class="st0" d="M22.4,27.4h-5.3c-1.1,0-2-0.9-2-2v-0.9l0,0h9.3l0,0v0.9C24.4,26.5,23.5,27.4,22.4,27.4z"/>
<path class="st0" d="M17.1,2.6h5.3c1.1,0,2,0.9,2,2v0.9l0,0h-9.3l0,0V4.6C15.1,3.5,16,2.6,17.1,2.6z"/>
<polygon class="st0" points="15.6,10.8 8.5,10.8 8.5,19.2 15.6,19.2 15.6,24.5 24.1,24.5 24.1,19.2 24.1,10.8 24.1,5.5 15.6,5.5 "/>
<rect class="st1" width="30" height="30"/>
</svg>
