<svg id="图层_1" data-name="图层 1" xmlns="http://www.w3.org/2000/svg" viewBox="0 0 30 30"><defs><style>.cls-1,.cls-2{fill:none;}.cls-1{stroke:#fff;stroke-linecap:round;stroke-linejoin:round;stroke-width:1.3px;}</style></defs><path class="cls-1" d="M12.33,2.73h5.34a2,2,0,0,1,2,2v.92a0,0,0,0,1,0,0H10.33a0,0,0,0,1,0,0V4.73A2,2,0,0,1,12.33,2.73Z"/><path class="cls-1" d="M12.33,24.35h5.34a2,2,0,0,1,2,2v.92a0,0,0,0,1,0,0H10.33a0,0,0,0,1,0,0v-.92A2,2,0,0,1,12.33,24.35Z" transform="translate(30 51.63) rotate(180)"/><path class="cls-1" d="M1.29,13.54H6.63a2,2,0,0,1,2,2v.92a0,0,0,0,1,0,0H-.71a0,0,0,0,1,0,0v-.92A2,2,0,0,1,1.29,13.54Z" transform="translate(-11.04 18.96) rotate(-90)"/><path class="cls-1" d="M23.37,13.54h5.34a2,2,0,0,1,2,2v.92a0,0,0,0,1,0,0H21.37a0,0,0,0,1,0,0v-.92a2,2,0,0,1,2-2Z" transform="translate(41.04 -11.04) rotate(90)"/><polygon class="cls-1" points="24.35 10.61 19.39 10.61 19.39 5.65 10.61 5.65 10.61 10.61 5.65 10.61 5.65 19.39 10.61 19.39 10.61 24.35 19.39 24.35 19.39 19.39 24.35 19.39 24.35 10.61"/><rect class="cls-2" width="30" height="30"/></svg>