<?xml version="1.0" encoding="utf-8"?>
<!-- Generator: Adobe Illustrator 25.2.3, SVG Export Plug-In . SVG Version: 6.00 Build 0)  -->
<svg version="1.1" id="图层_1" xmlns="http://www.w3.org/2000/svg" xmlns:xlink="http://www.w3.org/1999/xlink" x="0px" y="0px"
	 viewBox="0 0 30 30" style="enable-background:new 0 0 30 30;" xml:space="preserve">
<style type="text/css">
	.st0{fill:none;stroke:#FFFFFF;stroke-width:1.3;stroke-linecap:round;stroke-linejoin:round;}
	.st1{fill:none;}
</style>
<path class="st0" d="M13.9,26.6H5.4c-1.1,0-2-0.9-2-2v-2l0,0h12.5l0,0v2C15.9,25.7,15,26.6,13.9,26.6z"/>
<line class="st0" x1="12.8" y1="26.3" x2="12.8" y2="22.5"/>
<line class="st0" x1="9.6" y1="26.3" x2="9.6" y2="22.5"/>
<line class="st0" x1="6.5" y1="26.3" x2="6.5" y2="22.5"/>
<path class="st0" d="M26.6,5.4V14c0,1.1-0.9,2-2,2h-2l0,0V3.4l0,0h2C25.7,3.4,26.6,4.3,26.6,5.4z"/>
<line class="st0" x1="26.4" y1="6.5" x2="22.6" y2="6.5"/>
<line class="st0" x1="26.4" y1="9.7" x2="22.6" y2="9.7"/>
<line class="st0" x1="26.4" y1="12.8" x2="22.6" y2="12.8"/>
<path class="st0" d="M4,17.6v4.9h11.2v-2.8c0-2.4,1.9-4.3,4.3-4.3c0,0,0,0,0,0h3V4.3h-5.2C10,4.3,4,10.3,4,17.6
	C4,17.6,4,17.6,4,17.6z"/>
<rect class="st1" width="30" height="30"/>
</svg>
