<svg id="图层_1" data-name="图层 1" xmlns="http://www.w3.org/2000/svg" viewBox="0 0 30 30"><defs><style>.cls-1,.cls-2{fill:none;}.cls-1{stroke:#fff;stroke-linecap:round;stroke-linejoin:round;stroke-width:1.3px;}</style></defs><rect class="cls-1" x="4" y="10.82" width="22" height="2.53" rx="1.09"/><rect class="cls-1" x="6.93" y="4" width="16.11" height="3.22" rx="0.71"/><path class="cls-1" d="M11.93,13.35H18a5,5,0,0,1,5,5v4.86a.33.33,0,0,1-.33.33H7.57a.64.64,0,0,1-.64-.64V18.35a5,5,0,0,1,5-5Z" transform="translate(29.97 36.9) rotate(-180)"/><rect class="cls-1" x="8.82" y="7.22" width="12.12" height="3.53"/><path class="cls-1" d="M11.85,23.57h6.06a0,0,0,0,1,0,0v1.08A1.35,1.35,0,0,1,16.55,26H13.2a1.35,1.35,0,0,1-1.35-1.35V23.57a0,0,0,0,1,0,0Z"/><rect class="cls-2" width="30" height="30"/></svg>