<svg id="图层_1" data-name="图层 1" xmlns="http://www.w3.org/2000/svg" viewBox="0 0 30 30"><defs><style>.cls-1,.cls-2{fill:none;}.cls-1{stroke:#fff;stroke-linecap:round;stroke-linejoin:round;stroke-width:1.3px;}</style></defs><path class="cls-1" d="M12.33,5.59h5.34a2,2,0,0,1,2,2v.92a0,0,0,0,1,0,0H10.33a0,0,0,0,1,0,0V7.59A2,2,0,0,1,12.33,5.59Z"/><path class="cls-1" d="M1.37,18.28H6.71a2,2,0,0,1,2,2v.92a0,0,0,0,1,0,0H-.63a0,0,0,0,1,0,0v-.92A2,2,0,0,1,1.37,18.28Z" transform="translate(-15.7 23.78) rotate(-90)"/><path class="cls-1" d="M23.29,18.28h5.34a2,2,0,0,1,2,2v.92a0,0,0,0,1,0,0H21.29a0,0,0,0,1,0,0v-.92A2,2,0,0,1,23.29,18.28Z" transform="translate(45.7 -6.22) rotate(90)"/><polygon class="cls-1" points="19.25 15.65 19.25 8.51 10.76 8.51 10.76 15.65 5.5 15.65 5.5 24.14 10.76 24.14 19.25 24.14 24.5 24.14 24.5 15.65 19.25 15.65"/><rect class="cls-2" width="30" height="30"/></svg>